<?xml version="1.0" standalone="no"?>
<!DOCTYPE svg PUBLIC "-//W3C//DTD SVG 20010904//EN"
 "http://www.w3.org/TR/2001/REC-SVG-20010904/DTD/svg10.dtd">
<svg version="1.0" xmlns="http://www.w3.org/2000/svg"
 width="42.000000pt" height="10.000000pt" viewBox="0 0 42.000000 10.000000"
 preserveAspectRatio="xMidYMid meet">

<g transform="translate(0.000000,10.000000) scale(0.100000,-0.100000)"
fill="#000000" stroke="none">
<path fill="#dcca87" d="M24 75 l-27 -25 27 -25 c42 -39 56 -33 56 25 0 58 -14 64 -56 25z"/>
<path fill="#dcca87" d="M340 50 c0 -58 14 -64 56 -25 l27 25 -27 25 c-42 39 -56 33 -56 -25z"/>
<path fill="#dcca87" d="M90 50 c0 -6 47 -10 120 -10 73 0 120 4 120 10 0 6 -47 10 -120 10
-73 0 -120 -4 -120 -10z"/>
</g>
</svg>
